HIERARCHY
ROOT Hips
{
	OFFSET 0.00000 0.00000 0.00000
	CHANNELS 6 Xposition Yposition Zposition Zrotation Yrotation Xrotation 
	JOINT LHipJoint
	{
		OFFSET 0 0 0
		CHANNELS 3 Zrotation Yrotation Xrotation
		JOINT LeftHip
		{
			OFFSET 1.84395 -1.68683 0.74144
			CHANNELS 3 Zrotation Yrotation Xrotation
			JOINT LeftKnee
			{
				OFFSET 2.27037 -6.23779 0.00000
				CHANNELS 3 Zrotation Yrotation Xrotation
				JOINT LeftAnkle
				{
					OFFSET 2.56918 -7.05877 0.00000
					CHANNELS 3 Zrotation Yrotation Xrotation
					JOINT LeftToe
					{
						OFFSET 0.22276 -0.61202 1.71784
						CHANNELS 3 Zrotation Yrotation Xrotation
						End Site
						{
							OFFSET 0.00000 -0.00000 0.91613
						}
					}
				}
			}
		}
	}
	JOINT RHipJoint
	{
		OFFSET 0 0 0
		CHANNELS 3 Zrotation Yrotation Xrotation
		JOINT RightHip
		{
			OFFSET -1.76833 -1.68684 0.74144
			CHANNELS 3 Zrotation Yrotation Xrotation
			JOINT RightKnee
			{
				OFFSET -2.49360 -6.85110 0.00000
				CHANNELS 3 Zrotation Yrotation Xrotation
				JOINT RightAnkle
				{
					OFFSET -2.55538 -7.02085 0.00000
					CHANNELS 3 Zrotation Yrotation Xrotation
					JOINT RightToe
					{
						OFFSET -0.21516 -0.59115 1.68050
						CHANNELS 3 Zrotation Yrotation Xrotation
						End Site
						{
							OFFSET -0.00000 -0.00000 0.89604
						}
					}
				}
			}
		}
	}
	JOINT lowerback
	{
		OFFSET 0 0 0
		CHANNELS 3 Zrotation Yrotation Xrotation
		JOINT Chest
		{
			OFFSET 0.06382 1.72312 -0.19613
			CHANNELS 3 Zrotation Yrotation Xrotation
			JOINT Chest2
			{
				OFFSET -0.00055 1.73507 0.23859
				CHANNELS 3 Zrotation Yrotation Xrotation
				JOINT lowerneck
				{
					OFFSET 0 0 0
					CHANNELS 3 Zrotation Yrotation Xrotation
					JOINT Neck
					{
						OFFSET 0.03638 1.65562 0.09633
						CHANNELS 3 Zrotation Yrotation Xrotation
						JOINT Head
						{
							OFFSET 0.06388 1.62807 -0.32386
							CHANNELS 3 Zrotation Yrotation Xrotation
							End Site
							{
								OFFSET 0.00995 1.67644 -0.12021
							}
						}
					}
				}
				JOINT LeftCollar
				{
					OFFSET 0 0 0
					CHANNELS 3 Zrotation Yrotation Xrotation
					JOINT LeftShoulder
					{
						OFFSET 3.09648 1.42991 0.28122
CHANNELS 3 Zrotation Xrotation Yrotation
						JOINT LeftElbow
						{
OFFSET 0 -5.118780 -0.000000
CHANNELS 3 Zrotation Xrotation Yrotation
							JOINT LeftWrist
							{
OFFSET 0 -3.599710 0.000000
CHANNELS 3 Zrotation Xrotation Yrotation
								JOINT lhand
								{
									OFFSET 0 0 0
CHANNELS 3 Zrotation Xrotation Yrotation
									JOINT LFingers
									{
OFFSET 0 -0.628770 0.000000
CHANNELS 3 Zrotation Xrotation Yrotation
										End Site
										{
OFFSET 0 -0.506930 0.000000
										}
									}
								}
								JOINT LThumb
								{
OFFSET 0 0.000000 0.000000
CHANNELS 3 Zrotation Xrotation Yrotation
									End Site
									{
OFFSET 0 -0.514670 0.514670
									}
								}
							}
						}
					}
				}
				JOINT RightCollar
				{
					OFFSET 0 0 0
					CHANNELS 3 Zrotation Yrotation Xrotation
					JOINT RightShoulder
					{
						OFFSET -3.33565 1.14597 0.05047
CHANNELS 3 Zrotation Xrotation Yrotation
						JOINT RightElbow
						{
OFFSET 0 -5.490200 0.000000
CHANNELS 3 Zrotation Xrotation Yrotation
							JOINT RightWrist
							{
OFFSET 0 -3.206590 -0.000000
CHANNELS 3 Zrotation Xrotation Yrotation
								JOINT rhand
								{
									OFFSET 0 0 0
CHANNELS 3 Zrotation Xrotation Yrotation
									JOINT RFingers
									{
OFFSET 0 -0.691880 0.000000
CHANNELS 3 Zrotation Xrotation Yrotation
										End Site
										{
OFFSET 0 -0.557810 0.000000
										}
									}
								}
								JOINT RThumb
								{
OFFSET 0 0.000000 0.000000
CHANNELS 3 Zrotation Xrotation Yrotation
									End Site
									{
OFFSET 0 -0.566330 0.566330
									}
								}
							}
						}
					}
				}
			}
		}
	}
}
MOTION
Frames: 9
Frame Time: 0.008333333333333333
-0.230451 17.685331 7.644177 -9.153604 1.409856 17.623911 0.000000 0.000000 0.000000 -4.603697 -50.704157 8.278704 0.022109 -0.960681 -2.640644 -3.272259 43.525565 -51.261360 1.027133 6.444604 18.080725 0.000000 0.000000 0.000000 22.351515 23.854226 -14.663682 -0.379275 -3.954047 10.947624 0.307078 -15.073158 -17.753925 -0.007353 -0.554202 1.522807 6.755939 0.171901 9.431164 3.947363 1.030032 2.005885 0.188649 0.463244 -3.154497 -2.953069 -7.327603 -3.786411 9.441959 -10.285431 6.060874 3.205353 -4.878738 3.401992 0.000000 0.000000 0.000000 -36.773151 -62.988283 -82.836504 113.376003 -57.812518 80.093631 6.307938 -4.334951 -5.920264 0.000000 0.000000 0.000000 -7.125000 0.000000 0.000000 -16.964158 35.455121 -4.008887 0.000000 0.000000 0.000000 -36.087001 -64.946499 21.000089 -126.019783 -54.479592 -90.615661 44.509187 -27.529776 54.920294 0.000000 0.000000 0.000000 7.125000 0.000000 0.000000 100.921269 57.641473 -64.729856
-0.300232 17.695851 7.639578 -9.767742 2.124270 19.026749 0.000000 0.000000 0.000000 -1.472151 -52.633364 6.452074 0.023748 -0.992750 -2.728815 -1.834511 42.726861 -53.912860 1.432325 7.564452 21.400049 0.000000 0.000000 0.000000 22.794394 25.063520 -14.883129 -0.260502 -3.279470 9.058291 0.584876 -16.948393 -17.387096 -0.011193 -0.681856 1.873873 8.093223 -0.292597 10.078611 4.468127 0.686658 1.545544 0.034807 0.248690 -4.000385 -2.129904 -7.015023 -3.459730 8.760329 -9.833749 5.766552 2.858631 -4.672609 3.102626 0.000000 0.000000 0.000000 -42.230957 -67.024929 -85.799606 100.712977 -59.538654 69.261991 -5.082287 -30.977205 -16.909938 0.000000 0.000000 0.000000 -7.125000 0.000000 0.000000 -29.997532 44.582044 -0.341870 0.000000 0.000000 0.000000 -33.571221 -65.307792 24.017596 -126.282277 -54.389102 -90.829351 16.423243 0.598985 57.092498 0.000000 0.000000 0.000000 7.125000 0.000000 0.000000 90.894328 66.713873 -65.471207
-0.345552 17.710857 7.656299 -9.045865 1.029563 20.324012 0.000000 0.000000 0.000000 -2.138272 -56.084974 7.511837 0.022452 -0.965445 -2.653811 1.088686 42.602981 -60.552590 2.124177 9.107996 26.142444 0.000000 0.000000 0.000000 21.390521 26.973580 -14.943006 -0.178211 -2.718026 7.494778 0.800731 -18.262415 -16.989632 -0.020899 -0.931662 2.560767 8.373412 0.123953 10.639007 4.358124 1.333261 1.449444 -0.323903 0.548380 -4.372043 -1.859872 -7.124132 -3.928581 8.216543 -9.918441 5.241409 2.609890 -4.727279 2.960262 0.000000 0.000000 0.000000 -39.748184 -68.291602 -83.674548 99.645737 -59.642169 68.343277 1.410620 -51.543253 -19.920004 0.000000 0.000000 0.000000 -7.125000 0.000000 0.000000 -25.828588 48.095699 2.053145 0.000000 0.000000 0.000000 -34.266593 -66.202368 22.449691 -124.860344 -54.867352 -89.669384 -8.391266 28.595452 53.935195 0.000000 0.000000 0.000000 7.125000 0.000000 0.000000 71.646529 74.629157 -55.952456
-0.359861 17.723426 7.683102 -8.110815 -0.875979 21.366041 0.000000 0.000000 0.000000 -4.102231 -58.720625 9.249310 0.018740 -0.883428 -2.428151 4.997570 41.711500 -67.349484 2.842115 10.434593 30.396141 0.000000 0.000000 0.000000 19.688881 28.261593 -15.358941 -0.138507 -2.399006 6.609703 0.878573 -18.407384 -16.034572 -0.019821 -0.908281 2.496445 7.727930 0.450778 10.608215 4.485236 1.670048 1.672192 0.119791 0.734933 -4.119093 -2.318959 -6.771692 -2.882276 8.060253 -9.296083 3.640358 2.716007 -4.496246 2.210596 0.000000 0.000000 0.000000 -35.995899 -67.940674 -79.116413 103.830174 -59.264692 71.947657 11.073312 -48.889930 -20.855600 0.000000 0.000000 0.000000 -7.125000 0.000000 0.000000 -17.409098 50.371917 2.367289 0.000000 0.000000 0.000000 -36.639889 -69.863676 19.362883 -119.661259 -56.396379 -85.376208 -9.548956 37.649637 51.487255 0.000000 0.000000 0.000000 7.125000 0.000000 0.000000 62.679474 74.281583 -47.421395
-0.383621 17.727357 7.695936 -7.744674 -2.986630 21.877483 0.000000 0.000000 0.000000 -5.676616 -59.707331 10.938176 0.019771 -0.907675 -2.494897 8.087139 40.847064 -72.112413 3.387062 11.296642 33.287059 0.000000 0.000000 0.000000 18.752023 29.841150 -15.537744 -0.128169 -2.306057 6.352373 0.955930 -18.573317 -15.026529 -0.010868 -0.672101 1.846993 7.990037 1.148390 11.603656 4.116311 2.690281 1.913526 -0.573196 1.224862 -4.330863 -1.694691 -6.775116 -3.599062 7.610928 -9.284610 3.260382 2.436515 -4.485474 2.148428 0.000000 0.000000 0.000000 -33.366794 -66.925851 -76.319907 106.677872 -58.919048 74.390732 14.046071 -54.136565 -20.766410 0.000000 0.000000 0.000000 -7.125000 0.000000 0.000000 -14.540808 50.756545 2.100566 0.000000 0.000000 0.000000 -41.781544 -73.314272 12.257804 -108.563283 -58.641414 -76.001536 -2.173905 33.527500 53.573744 0.000000 0.000000 0.000000 7.125000 0.000000 0.000000 73.133044 72.290239 -54.646503
-0.416348 17.732638 7.745812 -7.032453 -3.850632 22.463710 0.000000 0.000000 0.000000 -6.024732 -59.733191 10.338360 0.017477 -0.853821 -2.346817 8.337600 41.034124 -72.636215 3.404944 11.323259 33.378133 0.000000 0.000000 0.000000 17.628007 30.800056 -15.485723 -0.098735 -2.026181 5.578005 1.110420 -19.439817 -14.531797 -0.017396 -0.848627 2.332281 5.631151 -0.121262 11.732097 5.937575 0.850293 1.604106 2.972966 0.364584 -4.834290 -5.293630 -4.972284 -1.524968 7.174905 -6.741980 1.937521 3.101489 -3.316717 1.324928 0.000000 0.000000 0.000000 -21.634782 -65.795500 -61.666199 111.147668 -58.235822 78.205419 18.584613 -54.759994 -18.221610 0.000000 0.000000 0.000000 -7.125000 0.000000 0.000000 -9.321734 48.895223 0.944290 0.000000 0.000000 0.000000 -29.659355 -77.767397 27.512806 -102.426048 -59.408285 -70.739876 22.663756 -9.492281 59.387789 0.000000 0.000000 0.000000 7.125000 0.000000 0.000000 97.752686 64.898479 -71.264144
-0.450438 17.755125 7.808713 -7.798971 -2.901175 23.492022 0.000000 0.000000 0.000000 -2.536611 -59.784023 7.776885 0.019973 -0.911941 -2.506576 7.255284 41.796086 -71.307534 3.136031 10.911792 31.983316 0.000000 0.000000 0.000000 18.328295 31.811115 -15.692587 -0.078158 -1.803774 4.963656 1.366902 -21.104289 -14.809162 -0.035882 -1.220546 3.355740 8.820252 0.251016 11.336476 5.152497 1.658197 1.566642 0.214265 0.694261 -4.624806 -2.831281 -5.769282 -2.100446 7.330218 -7.724175 0.364038 2.680272 -3.815606 0.905082 0.000000 0.000000 0.000000 -22.836934 -64.973966 -67.538931 111.411985 -58.194672 78.430931 25.684151 -50.878044 -14.123184 0.000000 0.000000 0.000000 -7.125000 0.000000 0.000000 -1.672623 45.570559 0.029348 0.000000 0.000000 0.000000 -36.761361 -76.723930 18.394328 -109.243948 -58.546046 -76.583712 15.371147 -47.678014 69.401207 0.000000 0.000000 0.000000 7.125000 0.000000 0.000000 98.444630 -68.498591 121.866199
-0.468985 17.765268 7.861038 -8.234452 -2.065438 23.601947 0.000000 0.000000 0.000000 -1.698425 -60.174710 7.703018 0.020254 -0.918918 -2.525750 6.626099 42.492903 -70.723724 2.935505 10.589785 30.908644 0.000000 0.000000 0.000000 19.081709 32.034937 -15.189046 -0.066698 -1.666000 4.583386 1.481723 -21.888261 -15.284816 -0.085122 -1.882161 5.180157 10.966029 0.468679 12.075829 4.692799 2.266328 1.809372 -1.550973 0.954822 -4.639641 -0.384166 -6.346939 -3.331824 6.692981 -8.461000 -1.636508 2.019074 -4.213463 0.375553 0.000000 0.000000 0.000000 -25.618609 -64.234132 -72.906785 112.476513 -58.000756 79.334458 32.336454 -54.625062 -12.377536 0.000000 0.000000 0.000000 -7.125000 0.000000 0.000000 4.703192 44.477606 0.088079 0.000000 0.000000 0.000000 -33.612865 -73.888357 22.203940 -118.446901 -56.693946 -84.360213 5.075869 -42.998933 70.582897 0.000000 0.000000 0.000000 7.125000 0.000000 0.000000 105.295197 -70.417825 126.159307
-0.496650 17.767569 7.915054 -8.286764 -2.382969 24.042692 0.000000 0.000000 0.000000 -2.030257 -61.491385 8.668741 0.020293 -0.918855 -2.525652 8.423525 42.327071 -73.511281 3.080693 10.824429 31.690129 0.000000 0.000000 0.000000 19.027631 32.267046 -15.534754 -0.067897 -1.681018 4.624811 1.489009 -21.807319 -14.773516 -0.062680 -1.613531 4.438852 10.674288 0.285116 12.226694 5.056320 2.009059 1.985511 -0.969189 0.842031 -4.586657 -0.256394 -5.829229 -2.651296 6.575736 -7.614772 -4.682260 2.068893 -3.878172 -0.731117 0.000000 0.000000 0.000000 -24.025004 -63.026474 -74.094273 118.945594 -56.561360 84.775258 40.667621 -55.054985 -8.267622 0.000000 0.000000 0.000000 -7.125000 0.000000 0.000000 12.185674 40.520067 1.375853 0.000000 0.000000 0.000000 -16.902829 -71.495917 40.285883 -130.348943 -52.786625 -94.086282 -14.890813 -23.022234 69.229432 0.000000 0.000000 0.000000 7.125000 0.000000 0.000000 116.147593 -73.889189 131.903815
